# xmcd
#
# Track frame offsets: 
#        150
#        13248
#        26015
#        36855
#        48348
#        62100
#        74661
#        84120
#        93690
#        102701
#        135585
#        154017
#
# Disc length: 2179 seconds
#
# Revision: 0
# Processed by: cddbd v1.4PL0 Copyright (c) Steve Scherf et al.
# Submitted via: ExactAudioCopy v0.95a3
#
DISCID=a408810c
DTITLE=Larry McNeely With Jack Skinner And Geoff Levin - Live At McCab
DTITLE=e's
DYEAR=1977
DGENRE=Bluegrass
TTITLE0=Earl's Breakdown
TTITLE1=Hilltop
TTITLE2=Band Intro
TTITLE3=Silverbird
TTITLE4=Giza
TTITLE5=Shuckin' The Corn
TTITLE6=Honeysuckle
TTITLE7=Grey Eagle
TTITLE8=Jerry's Breakdown
TTITLE9=Slow Train
TTITLE10=Midnite Rider
TTITLE11=Number Five
EXTD=
EXTT0=
EXTT1=
EXTT2=
EXTT3=
EXTT4=
EXTT5=
EXTT6=
EXTT7=
EXTT8=
EXTT9=
EXTT10=
EXTT11=
PLAYORDER=
